<svg xmlns="http://www.w3.org/2000/svg" version="1.1" xmlns:xlink="http://www.w3.org/1999/xlink" width="512" height="512" x="0" y="0" viewBox="0 0 36.747 36.747" style="enable-background:new 0 0 512 512" xml:space="preserve" class=""><g><path d="M18.374 4.937C8.226 4.937 0 13.163 0 23.311c0 2.496.504 4.875 1.409 7.043.341.82 1.402 1.456 2.291 1.456h.347c.889 0 2.02-.593 2.526-1.323l1.093-1.578c.506-.73 1.426-.814 2.054-.186l.252.252c.629.63 1.528.533 2.008-.215l5.187-9.679c.481-.748 1.305-.779 1.842-.071l5.872 9.365c.537.709 1.641 1.014 2.466.684l1.672-.672c.825-.332 2.103-.217 2.854.259l1.947 1.229c.752.475 1.66.202 1.947-.639.635-1.859.98-3.852.98-5.926.001-10.147-8.225-18.373-18.373-18.373z" style="" fill="#f38120" data-original="#010002" class="" opacity="1"></path></g></svg>